<svg id="email" xmlns="http://www.w3.org/2000/svg" width="21.6" height="15.428" viewBox="0 0 21.6 15.428">
  <path id="Caminho_574" data-name="Caminho 574" d="M11.656,13.471a2.314,2.314,0,0,0,3.174,0l7.772-7.3A2.29,2.29,0,0,0,21.724,6H4.753a2.3,2.3,0,0,0-.833.161Z" transform="translate(-2.439 -6)" fill="#c4c262"/>
  <path id="Caminho_575" data-name="Caminho 575" d="M15.447,14.95a3.863,3.863,0,0,1-5.29-.008L2.309,7.527A2.293,2.293,0,0,0,2,8.663v10.8a2.314,2.314,0,0,0,2.314,2.314H21.286A2.314,2.314,0,0,0,23.6,19.463V8.663a2.281,2.281,0,0,0-.291-1.1Z" transform="translate(-2 -6.349)" fill="#c4c262"/>
</svg>
