<svg id="_x31_0.Linkedin" xmlns="http://www.w3.org/2000/svg" width="17.5" height="17.5" viewBox="0 0 17.5 17.5">
  <path id="Caminho_206" data-name="Caminho 206" d="M49.609,47.266V40.856c0-3.15-.678-5.556-4.353-5.556a3.8,3.8,0,0,0-3.434,1.881h-.044v-1.6H38.3V47.266h3.631v-5.8c0-1.531.284-3,2.166-3,1.859,0,1.881,1.728,1.881,3.084v5.688h3.631Z" transform="translate(-32.109 -29.766)" fill="#fff"/>
  <path id="Caminho_207" data-name="Caminho 207" d="M11.3,36.6h3.631V48.281H11.3Z" transform="translate(-11.016 -30.781)" fill="#fff"/>
  <path id="Caminho_208" data-name="Caminho 208" d="M12.1,10a2.111,2.111,0,1,0,2.1,2.1A2.1,2.1,0,0,0,12.1,10Z" transform="translate(-10 -10)" fill="#fff"/>
</svg>
