<svg xmlns="http://www.w3.org/2000/svg" width="20.229" height="20.229" viewBox="0 0 20.229 20.229">
  <g id="_x31_0.Linkedin" transform="translate(-10 -10)">
    <path id="Caminho_206" data-name="Caminho 206" d="M51.373,49.131V41.723c0-3.641-.784-6.423-5.032-6.423a4.391,4.391,0,0,0-3.97,2.175H42.32V35.629H38.3v13.5h4.2v-6.7c0-1.77.329-3.464,2.5-3.464,2.149,0,2.175,2,2.175,3.565v6.574h4.2Z" transform="translate(-21.144 -18.903)" fill="#c4c262"/>
    <path id="Caminho_207" data-name="Caminho 207" d="M11.3,36.6h4.2V50.1H11.3Z" transform="translate(-0.971 -19.874)" fill="#c4c262"/>
    <path id="Caminho_208" data-name="Caminho 208" d="M12.427,10a2.44,2.44,0,1,0,2.427,2.427A2.428,2.428,0,0,0,12.427,10Z" fill="#c4c262"/>
  </g>
</svg>
