<svg xmlns="http://www.w3.org/2000/svg" xmlns:xlink="http://www.w3.org/1999/xlink" width="317.211" height="40.491" viewBox="0 0 317.211 40.491">
  <defs>
    <clipPath id="clip-path">
      <rect id="Retângulo_4" data-name="Retângulo 4" width="317.211" height="40.491" fill="#fff"/>
    </clipPath>
  </defs>
  <g id="logo_furtado_e_peixoto_-_branco" data-name="logo furtado e peixoto - branco" transform="translate(0 0)">
    <path id="Caminho_1" data-name="Caminho 1" d="M109.45,36.866h.021l.9,2.872h-1.838Zm-.844-1.627-2.56,7.22h1.585l.514-1.486h2.66l.452,1.486H112.9l-2.549-7.22Z" transform="translate(-6.677 -2.219)" fill="#fff"/>
    <g id="Grupo_2" data-name="Grupo 2" transform="translate(0 0)">
      <g id="Grupo_1" data-name="Grupo 1" clip-path="url(#clip-path)">
        <path id="Caminho_2" data-name="Caminho 2" d="M126.162,41.886a2.515,2.515,0,0,1-1.707.573h-3.182v-7.22h3.213a2.6,2.6,0,0,1,2.62,1.737,4.605,4.605,0,0,1,.3,1.707,5.129,5.129,0,0,1-.321,1.818,3.177,3.177,0,0,1-.924,1.385m-.926-5.081a2.279,2.279,0,0,0-1.43-.332c-.148,0-.342.006-.579.016s-.4.015-.479.015v4.719h1.491a1.388,1.388,0,0,0,1.249-.781,3.318,3.318,0,0,0,.4-1.693,2.431,2.431,0,0,0-.655-1.943" transform="translate(-7.636 -2.219)" fill="#fff"/>
        <path id="Caminho_3" data-name="Caminho 3" d="M141.82,35.239l-2.45,7.22h-1.425l-2.431-7.22h1.607l1.567,5.071,1.566-5.071Z" transform="translate(-8.533 -2.219)" fill="#fff"/>
        <path id="Caminho_4" data-name="Caminho 4" d="M156.953,38.88a4.049,4.049,0,0,1-.935,2.85,3.149,3.149,0,0,1-2.429.964,3.28,3.28,0,0,1-2.637-1.074,4.417,4.417,0,0,1-.918-2.962,3.708,3.708,0,0,1,.924-2.612,3.316,3.316,0,0,1,2.551-1.053,3.252,3.252,0,0,1,2.37.933,3.97,3.97,0,0,1,1.075,2.953m-1.5.09q0-2.631-2-2.641a1.672,1.672,0,0,0-1.466.773,2.935,2.935,0,0,0-.461,1.646,3.076,3.076,0,0,0,.512,1.788,1.826,1.826,0,0,0,1.576.863,1.6,1.6,0,0,0,1.286-.622,2.763,2.763,0,0,0,.553-1.808" transform="translate(-9.447 -2.204)" fill="#fff"/>
        <path id="Caminho_5" data-name="Caminho 5" d="M170.337,41.935a2.183,2.183,0,0,1-.9.573,3.752,3.752,0,0,1-1.124.14,2.958,2.958,0,0,1-2.45-1.174,4.165,4.165,0,0,1-.824-2.641,4.054,4.054,0,0,1,.885-2.681,2.847,2.847,0,0,1,1.184-.824,3.913,3.913,0,0,1,1.486-.281,3.637,3.637,0,0,1,2.1.6,2.31,2.31,0,0,1,1.044,1.812h-1.507a1.168,1.168,0,0,0-.537-.843,1.879,1.879,0,0,0-1.1-.331,1.8,1.8,0,0,0-1.376.593,2.864,2.864,0,0,0-.642,2.012,2.69,2.69,0,0,0,.642,1.912,1.909,1.909,0,0,0,2.582.152,1.477,1.477,0,0,0,.542-1.175H168.75V38.561h3v3.886c0-.036-1.42,0-1.417,0Z" transform="translate(-10.391 -2.207)" fill="#fff"/>
        <path id="Caminho_6" data-name="Caminho 6" d="M188.085,42.459h-1.647l-.451-1.486h-2.661l-.513,1.486h-1.586l2.561-7.22h1.748Zm-2.53-2.721-.9-2.872h-.021l-.915,2.872Z" transform="translate(-11.411 -2.219)" fill="#fff"/>
        <path id="Caminho_7" data-name="Caminho 7" d="M201.343,41.886a2.515,2.515,0,0,1-1.707.573h-3.182v-7.22h3.213a2.6,2.6,0,0,1,2.62,1.737,4.6,4.6,0,0,1,.3,1.707,5.129,5.129,0,0,1-.321,1.818,3.177,3.177,0,0,1-.924,1.385m-.926-5.081a2.279,2.279,0,0,0-1.43-.332c-.148,0-.342.006-.579.016s-.4.015-.479.015v4.719h1.491a1.388,1.388,0,0,0,1.249-.781,3.318,3.318,0,0,0,.4-1.693,2.431,2.431,0,0,0-.655-1.943" transform="translate(-12.37 -2.219)" fill="#fff"/>
        <path id="Caminho_8" data-name="Caminho 8" d="M217.743,38.88a4.049,4.049,0,0,1-.935,2.85,3.149,3.149,0,0,1-2.429.964,3.28,3.28,0,0,1-2.637-1.074,4.417,4.417,0,0,1-.918-2.962,3.708,3.708,0,0,1,.924-2.612,3.316,3.316,0,0,1,2.551-1.053,3.252,3.252,0,0,1,2.37.933,3.97,3.97,0,0,1,1.075,2.953m-1.5.09q0-2.631-2-2.641a1.672,1.672,0,0,0-1.466.773,2.935,2.935,0,0,0-.461,1.646,3.076,3.076,0,0,0,.512,1.788,1.826,1.826,0,0,0,1.576.863,1.6,1.6,0,0,0,1.286-.622,2.763,2.763,0,0,0,.553-1.808" transform="translate(-13.275 -2.204)" fill="#fff"/>
        <path id="Caminho_9" data-name="Caminho 9" d="M232.082,40.285a2.163,2.163,0,0,1-.332,1.235,2.531,2.531,0,0,1-1.044.843,3.255,3.255,0,0,1-1.335.281q-3.134-.02-3.213-2.43h1.466a1.072,1.072,0,0,0,.5.9,1.8,1.8,0,0,0,1.051.291,2,2,0,0,0,1.015-.25.748.748,0,0,0,.436-.662q.01-.641-1.122-.912a20.758,20.758,0,0,1-2.1-.562,1.831,1.831,0,0,1-1.113-1.8,2.162,2.162,0,0,1,.337-1.158,2.116,2.116,0,0,1,.989-.787,3.474,3.474,0,0,1,1.376-.27,3.209,3.209,0,0,1,1.928.572,2.2,2.2,0,0,1,.954,1.787h-1.446a1.07,1.07,0,0,0-.492-.833,1.67,1.67,0,0,0-.945-.26,1.832,1.832,0,0,0-.853.19.77.77,0,0,0-.463.683q0,.611,1.143.884c1.281.308,1.99.492,2.123.552a1.754,1.754,0,0,1,1.142,1.707" transform="translate(-14.24 -2.204)" fill="#fff"/>
        <rect id="Retângulo_1" data-name="Retângulo 1" width="92.217" height="1.635" transform="translate(0 35.783)" fill="#fff"/>
        <rect id="Retângulo_2" data-name="Retângulo 2" width="92.217" height="1.635" transform="translate(224.993 35.783)" fill="#fff"/>
        <path id="Caminho_10" data-name="Caminho 10" d="M4.375,10.077H14.751v4.077H4.375v9.38H0V.53H16.44V4.608H4.375Z" transform="translate(0 -0.033)" fill="#fff"/>
        <path id="Caminho_11" data-name="Caminho 11" d="M38.041,14.42a12.716,12.716,0,0,1-.579,3.961,8.186,8.186,0,0,1-1.687,3,7.325,7.325,0,0,1-2.763,1.89,10.279,10.279,0,0,1-3.837.662,10.152,10.152,0,0,1-3.821-.662,7.5,7.5,0,0,1-2.762-1.89,7.892,7.892,0,0,1-1.688-3,13.068,13.068,0,0,1-.562-3.961V.531h4.375V14.552q0,5.139,4.475,5.139t4.474-5.139V.531h4.375Z" transform="translate(-1.281 -0.034)" fill="#fff"/>
        <path id="Caminho_12" data-name="Caminho 12" d="M61.412,22.209a7.641,7.641,0,0,0,.365,1.325H57.334A5.753,5.753,0,0,1,57,22.442a6.989,6.989,0,0,1-.132-1.426V17.5a2.888,2.888,0,0,0-.713-2.171,3.211,3.211,0,0,0-2.27-.679H47.921v8.883H43.546v-23H54.053A8.614,8.614,0,0,1,59.8,2.338a6.255,6.255,0,0,1,2.138,5.055,5.712,5.712,0,0,1-.862,3.265,5.652,5.652,0,0,1-2.353,1.972A4.51,4.51,0,0,1,60.6,14.5a6.387,6.387,0,0,1,.647,3.033V20.75a7.482,7.482,0,0,0,.166,1.459m-7.26-11.5a6.394,6.394,0,0,0,.762-.082,3.641,3.641,0,0,0,1.161-.4A3.062,3.062,0,0,0,57.119,9.3a2.787,2.787,0,0,0,.447-1.674c0-.2-.016-.464-.05-.795a2.171,2.171,0,0,0-.38-1,2.7,2.7,0,0,0-1.044-.862,4.586,4.586,0,0,0-2.039-.365H47.921v6.1Z" transform="translate(-2.742 -0.034)" fill="#fff"/>
        <path id="Caminho_13" data-name="Caminho 13" d="M75.629,4.608V23.534H71.253V4.608H65.088V.53H81.795V4.608Z" transform="translate(-4.098 -0.033)" fill="#fff"/>
        <path id="Caminho_14" data-name="Caminho 14" d="M87.063,18.927l-1.557,4.608H80.865l8.022-23h5.535l8.021,23H97.8l-1.559-4.608ZM91.638,5.4,88.423,14.85h6.43Z" transform="translate(-5.092 -0.034)" fill="#fff"/>
        <path id="Caminho_15" data-name="Caminho 15" d="M124.675,16.805a10.223,10.223,0,0,1-2.089,3.613,9.261,9.261,0,0,1-3.281,2.3,10.876,10.876,0,0,1-4.275.811h-8.52V.53h8.52a11.174,11.174,0,0,1,4.308.8A8.917,8.917,0,0,1,122.6,3.613a10.341,10.341,0,0,1,2.072,3.63,14.794,14.794,0,0,1,.729,4.789,14.647,14.647,0,0,1-.729,4.773m-3.9-7.375a7.013,7.013,0,0,0-.911-2.386,5.16,5.16,0,0,0-1.823-1.757,5.923,5.923,0,0,0-3.015-.679h-4.145V19.457h4.145a5.274,5.274,0,0,0,4.954-2.685,6.935,6.935,0,0,0,.845-2.42,15.513,15.513,0,0,0,.2-2.353,13.752,13.752,0,0,0-.248-2.569" transform="translate(-6.707 -0.033)" fill="#fff"/>
        <path id="Caminho_16" data-name="Caminho 16" d="M144.746.926A10.749,10.749,0,0,1,148.3,3.472a11.887,11.887,0,0,1,2.334,3.8,12.812,12.812,0,0,1,.843,4.661,12.9,12.9,0,0,1-.843,4.694,11.882,11.882,0,0,1-2.334,3.8,10.707,10.707,0,0,1-3.558,2.545,11.407,11.407,0,0,1-9,0,10.694,10.694,0,0,1-3.557-2.545,11.85,11.85,0,0,1-2.334-3.8,12.9,12.9,0,0,1-.844-4.694,12.813,12.813,0,0,1,.844-4.661,11.855,11.855,0,0,1,2.334-3.8A10.736,10.736,0,0,1,135.743.926a11.407,11.407,0,0,1,9,0m-1.81,18.281a6.831,6.831,0,0,0,2.176-1.7A8.178,8.178,0,0,0,146.576,15a9.011,9.011,0,0,0,0-6.092,8.212,8.212,0,0,0-1.464-2.513,6.857,6.857,0,0,0-2.176-1.7,5.966,5.966,0,0,0-2.674-.615,6.077,6.077,0,0,0-2.692.615,6.84,6.84,0,0,0-2.193,1.7A8.245,8.245,0,0,0,133.915,8.9a9,9,0,0,0,0,6.092,8.212,8.212,0,0,0,1.462,2.513,6.814,6.814,0,0,0,2.193,1.7,6.065,6.065,0,0,0,2.692.616,5.955,5.955,0,0,0,2.674-.616" transform="translate(-8.123 0)" fill="#fff"/>
        <path id="Caminho_17" data-name="Caminho 17" d="M216.777,10.906a6.715,6.715,0,0,1-1.508,2.337,6.831,6.831,0,0,1-2.37,1.525,8.364,8.364,0,0,1-3.083.546h-5.4v8.221h-4.375V.53h9.679a9.177,9.177,0,0,1,3.215.531,6.569,6.569,0,0,1,2.387,1.491,6.456,6.456,0,0,1,1.475,2.338,8.714,8.714,0,0,1,.514,3.066,8.034,8.034,0,0,1-.53,2.95m-12.363-6.3v6.63h5.271a3.4,3.4,0,0,0,2.387-.788,3.278,3.278,0,0,0,.861-2.527,3.282,3.282,0,0,0-.861-2.527,3.409,3.409,0,0,0-2.387-.787Z" transform="translate(-12.596 -0.033)" fill="#fff"/>
        <path id="Caminho_18" data-name="Caminho 18" d="M238.653,23.535H221.616V.53h16.8V4.608h-12.43v4.9H236.6v4.078H225.991v5.867h12.662Z" transform="translate(-13.954 -0.033)" fill="#fff"/>
        <rect id="Retângulo_3" data-name="Retângulo 3" width="4.375" height="23.004" transform="translate(227.914 0.497)" fill="#fff"/>
        <path id="Caminho_19" data-name="Caminho 19" d="M260.347,15.48l-4.839,8.055h-5.2l7.424-11.767L250.635.53h5.171l4.541,7.525L264.888.53h5.2L263,11.767l7.392,11.767h-5.172Z" transform="translate(-15.76 -0.033)" fill="#fff"/>
        <path id="Caminho_20" data-name="Caminho 20" d="M287.088.926a10.749,10.749,0,0,1,3.558,2.546,11.887,11.887,0,0,1,2.334,3.8,12.812,12.812,0,0,1,.843,4.661,12.9,12.9,0,0,1-.843,4.694,11.882,11.882,0,0,1-2.334,3.8,10.707,10.707,0,0,1-3.558,2.545,11.407,11.407,0,0,1-9,0,10.694,10.694,0,0,1-3.557-2.545,11.848,11.848,0,0,1-2.334-3.8,12.9,12.9,0,0,1-.844-4.694,12.812,12.812,0,0,1,.844-4.661,11.854,11.854,0,0,1,2.334-3.8A10.736,10.736,0,0,1,278.085.926a11.407,11.407,0,0,1,9,0m-1.81,18.281a6.831,6.831,0,0,0,2.176-1.7A8.179,8.179,0,0,0,288.918,15a9,9,0,0,0,0-6.092,8.212,8.212,0,0,0-1.464-2.513,6.857,6.857,0,0,0-2.176-1.7,5.966,5.966,0,0,0-2.674-.615,6.077,6.077,0,0,0-2.692.615,6.84,6.84,0,0,0-2.193,1.7A8.245,8.245,0,0,0,276.257,8.9a9,9,0,0,0,0,6.092,8.212,8.212,0,0,0,1.462,2.513,6.813,6.813,0,0,0,2.193,1.7,6.065,6.065,0,0,0,2.692.616,5.955,5.955,0,0,0,2.674-.616" transform="translate(-17.086 0)" fill="#fff"/>
        <path id="Caminho_21" data-name="Caminho 21" d="M306.583,4.608V23.534h-4.376V4.608h-6.165V.53h16.706V4.608Z" transform="translate(-18.64 -0.033)" fill="#fff"/>
        <path id="Caminho_22" data-name="Caminho 22" d="M330.279.926a10.749,10.749,0,0,1,3.558,2.546,11.888,11.888,0,0,1,2.334,3.8,12.812,12.812,0,0,1,.843,4.661,12.9,12.9,0,0,1-.843,4.694,11.882,11.882,0,0,1-2.334,3.8,10.707,10.707,0,0,1-3.558,2.545,11.407,11.407,0,0,1-9,0,10.693,10.693,0,0,1-3.557-2.545,11.849,11.849,0,0,1-2.334-3.8,12.9,12.9,0,0,1-.844-4.694,12.813,12.813,0,0,1,.844-4.661,11.854,11.854,0,0,1,2.334-3.8A10.736,10.736,0,0,1,321.276.926a11.407,11.407,0,0,1,9,0m-1.81,18.281a6.831,6.831,0,0,0,2.176-1.7A8.179,8.179,0,0,0,332.109,15a9.011,9.011,0,0,0,0-6.092,8.212,8.212,0,0,0-1.464-2.513,6.858,6.858,0,0,0-2.176-1.7,5.966,5.966,0,0,0-2.674-.615,6.077,6.077,0,0,0-2.692.615,6.839,6.839,0,0,0-2.193,1.7A8.244,8.244,0,0,0,319.448,8.9a9,9,0,0,0,0,6.092,8.211,8.211,0,0,0,1.462,2.513,6.813,6.813,0,0,0,2.193,1.7,6.065,6.065,0,0,0,2.692.616,5.955,5.955,0,0,0,2.674-.616" transform="translate(-19.805 0)" fill="#fff"/>
        <path id="Caminho_23" data-name="Caminho 23" d="M183.033,16.019a7.478,7.478,0,0,1-2.427,5.921,7.967,7.967,0,0,1-5.4,1.876,8.9,8.9,0,0,1-5.727-1.909,6.407,6.407,0,0,1-2.588-5.274,7.344,7.344,0,0,1,.776-3.267,4.243,4.243,0,0,1,2.006-2.137,4.985,4.985,0,0,1-2.717-4.853A5.356,5.356,0,0,1,169.8,1.493,11.191,11.191,0,0,1,175.72.035V3.692a6,6,0,0,0-3.042.582A2.768,2.768,0,0,0,171.45,6.9a3.008,3.008,0,0,0,.032.421q.129,2.457,4.238,2.458v3.268a5.309,5.309,0,0,0-3.4.938,2.574,2.574,0,0,0-1,2.1,3.95,3.95,0,0,0,1.148,2.734,3.562,3.562,0,0,0,2.7,1.246q3.494,0,3.494-4.045V9.775h4.368Z" transform="translate(-10.508 -0.002)" fill="#fff"/>
      </g>
    </g>
  </g>
</svg>
