<svg xmlns="http://www.w3.org/2000/svg" xmlns:xlink="http://www.w3.org/1999/xlink" width="233.535" height="29.81" viewBox="0 0 233.535 29.81">
  <defs>
    <clipPath id="clip-path">
      <rect id="Retângulo_4" data-name="Retângulo 4" width="233.536" height="29.81" fill="#002b44"/>
    </clipPath>
  </defs>
  <g id="Grupo_334" data-name="Grupo 334" transform="translate(0 0)">
    <path id="Caminho_1" data-name="Caminho 1" d="M108.552,36.437h.015l.664,2.114h-1.353Zm-.622-1.2-1.885,5.315h1.167l.378-1.094h1.959l.333,1.094h1.212l-1.876-5.315Z" transform="translate(-32.889 -10.929)" fill="#002b44"/>
    <g id="Grupo_2" data-name="Grupo 2" transform="translate(0 0)">
      <g id="Grupo_1" data-name="Grupo 1" clip-path="url(#clip-path)">
        <path id="Caminho_2" data-name="Caminho 2" d="M124.873,40.133a1.851,1.851,0,0,1-1.257.422h-2.343V35.239h2.366a1.914,1.914,0,0,1,1.929,1.279,3.39,3.39,0,0,1,.222,1.257,3.776,3.776,0,0,1-.237,1.338,2.339,2.339,0,0,1-.68,1.02m-.682-3.74a1.678,1.678,0,0,0-1.053-.244c-.109,0-.252,0-.426.012s-.293.011-.353.011v3.474h1.1a1.022,1.022,0,0,0,.92-.575,2.443,2.443,0,0,0,.3-1.247,1.79,1.79,0,0,0-.482-1.431" transform="translate(-37.612 -10.929)" fill="#002b44"/>
        <path id="Caminho_3" data-name="Caminho 3" d="M140.156,35.239l-1.8,5.315H137.3l-1.789-5.315H136.7l1.153,3.734L139,35.239Z" transform="translate(-42.028 -10.929)" fill="#002b44"/>
        <path id="Caminho_4" data-name="Caminho 4" d="M155.128,37.855a2.981,2.981,0,0,1-.688,2.1,2.318,2.318,0,0,1-1.788.71,2.415,2.415,0,0,1-1.941-.791,3.252,3.252,0,0,1-.676-2.181,2.73,2.73,0,0,1,.68-1.923,2.441,2.441,0,0,1,1.878-.775,2.394,2.394,0,0,1,1.745.687,2.922,2.922,0,0,1,.791,2.174m-1.1.066q0-1.937-1.471-1.944a1.231,1.231,0,0,0-1.08.569,2.16,2.16,0,0,0-.339,1.212,2.265,2.265,0,0,0,.377,1.316,1.345,1.345,0,0,0,1.16.635,1.176,1.176,0,0,0,.946-.458,2.034,2.034,0,0,0,.407-1.331" transform="translate(-46.531 -10.853)" fill="#002b44"/>
        <path id="Caminho_5" data-name="Caminho 5" d="M168.938,40.118a1.607,1.607,0,0,1-.665.422,2.763,2.763,0,0,1-.828.1,2.178,2.178,0,0,1-1.8-.864,3.067,3.067,0,0,1-.606-1.944,2.985,2.985,0,0,1,.651-1.974,2.1,2.1,0,0,1,.872-.606,2.881,2.881,0,0,1,1.094-.207,2.678,2.678,0,0,1,1.545.439,1.7,1.7,0,0,1,.769,1.334h-1.109a.86.86,0,0,0-.4-.621,1.384,1.384,0,0,0-.809-.244,1.328,1.328,0,0,0-1.013.437,2.109,2.109,0,0,0-.473,1.481,1.98,1.98,0,0,0,.473,1.408,1.406,1.406,0,0,0,1.9.112,1.088,1.088,0,0,0,.4-.865H167.77v-.895h2.211v2.861c0-.026-1.045,0-1.043,0Z" transform="translate(-51.184 -10.87)" fill="#002b44"/>
        <path id="Caminho_6" data-name="Caminho 6" d="M186.276,40.554h-1.213l-.332-1.094h-1.959l-.377,1.094h-1.168l1.885-5.315H184.4Zm-1.863-2-.665-2.114h-.015l-.673,2.114Z" transform="translate(-56.206 -10.929)" fill="#002b44"/>
        <path id="Caminho_7" data-name="Caminho 7" d="M200.054,40.133a1.851,1.851,0,0,1-1.257.422h-2.343V35.239h2.366a1.914,1.914,0,0,1,1.929,1.279,3.39,3.39,0,0,1,.222,1.257,3.776,3.776,0,0,1-.237,1.338,2.339,2.339,0,0,1-.68,1.02m-.682-3.74a1.678,1.678,0,0,0-1.053-.244c-.109,0-.252,0-.426.012s-.293.011-.353.011v3.474h1.1a1.022,1.022,0,0,0,.92-.575,2.443,2.443,0,0,0,.3-1.247,1.79,1.79,0,0,0-.482-1.431" transform="translate(-60.928 -10.929)" fill="#002b44"/>
        <path id="Caminho_8" data-name="Caminho 8" d="M215.918,37.855a2.981,2.981,0,0,1-.688,2.1,2.318,2.318,0,0,1-1.788.71,2.415,2.415,0,0,1-1.941-.791,3.252,3.252,0,0,1-.676-2.181,2.73,2.73,0,0,1,.68-1.923,2.441,2.441,0,0,1,1.878-.775,2.394,2.394,0,0,1,1.745.687,2.922,2.922,0,0,1,.791,2.174m-1.1.066q0-1.937-1.471-1.944a1.231,1.231,0,0,0-1.08.569,2.161,2.161,0,0,0-.339,1.212,2.265,2.265,0,0,0,.377,1.316,1.345,1.345,0,0,0,1.16.635,1.176,1.176,0,0,0,.946-.458,2.034,2.034,0,0,0,.407-1.331" transform="translate(-65.385 -10.853)" fill="#002b44"/>
        <path id="Caminho_9" data-name="Caminho 9" d="M230.519,38.892a1.593,1.593,0,0,1-.244.909,1.864,1.864,0,0,1-.769.621,2.4,2.4,0,0,1-.983.207q-2.308-.014-2.366-1.789h1.079a.79.79,0,0,0,.368.665,1.322,1.322,0,0,0,.774.215,1.472,1.472,0,0,0,.747-.184.551.551,0,0,0,.321-.488q.007-.472-.826-.671a15.284,15.284,0,0,1-1.549-.414,1.348,1.348,0,0,1-.82-1.328,1.592,1.592,0,0,1,.248-.853,1.558,1.558,0,0,1,.728-.579,2.558,2.558,0,0,1,1.013-.2,2.363,2.363,0,0,1,1.42.421,1.619,1.619,0,0,1,.7,1.316H229.3a.788.788,0,0,0-.362-.613,1.23,1.23,0,0,0-.7-.192,1.349,1.349,0,0,0-.628.14.567.567,0,0,0-.341.5q0,.45.842.651c.943.227,1.465.362,1.563.406a1.291,1.291,0,0,1,.841,1.257" transform="translate(-70.14 -10.856)" fill="#002b44"/>
        <rect id="Retângulo_1" data-name="Retângulo 1" width="67.892" height="1.204" transform="translate(0 26.344)" fill="#002b44"/>
        <rect id="Retângulo_2" data-name="Retângulo 2" width="67.892" height="1.204" transform="translate(165.644 26.344)" fill="#002b44"/>
        <path id="Caminho_10" data-name="Caminho 10" d="M3.221,7.559H10.86v3H3.221v6.906H0V.53H12.1v3H3.221Z" transform="translate(0 -0.164)" fill="#002b44"/>
        <path id="Caminho_11" data-name="Caminho 11" d="M33.372,10.756a9.361,9.361,0,0,1-.426,2.916A6.027,6.027,0,0,1,31.7,15.88a5.393,5.393,0,0,1-2.034,1.391,7.567,7.567,0,0,1-2.825.488,7.474,7.474,0,0,1-2.813-.488A5.523,5.523,0,0,1,22,15.88a5.81,5.81,0,0,1-1.242-2.208,9.621,9.621,0,0,1-.414-2.916V.531h3.221V10.853q0,3.783,3.295,3.783t3.294-3.783V.531h3.221Z" transform="translate(-6.309 -0.165)" fill="#002b44"/>
        <path id="Caminho_12" data-name="Caminho 12" d="M56.7,16.491a5.625,5.625,0,0,0,.268.975H53.7a4.236,4.236,0,0,1-.244-.8,5.145,5.145,0,0,1-.1-1.05V13.025a2.126,2.126,0,0,0-.525-1.6,2.364,2.364,0,0,0-1.672-.5H46.767v6.54H43.546V.531h7.735a6.342,6.342,0,0,1,4.234,1.33,4.605,4.605,0,0,1,1.574,3.722,4.205,4.205,0,0,1-.635,2.4,4.161,4.161,0,0,1-1.732,1.451A3.32,3.32,0,0,1,56.1,10.817a4.7,4.7,0,0,1,.477,2.233v2.367a5.508,5.508,0,0,0,.122,1.074M51.355,8.023a4.707,4.707,0,0,0,.561-.061,2.68,2.68,0,0,0,.855-.293,2.254,2.254,0,0,0,.769-.684,2.052,2.052,0,0,0,.329-1.232c0-.146-.012-.341-.037-.585a1.6,1.6,0,0,0-.28-.733,1.984,1.984,0,0,0-.769-.635,3.377,3.377,0,0,0-1.5-.268H46.767v4.49Z" transform="translate(-13.505 -0.165)" fill="#002b44"/>
        <path id="Caminho_13" data-name="Caminho 13" d="M72.849,3.532V17.466H69.627V3.532H65.088v-3h12.3v3Z" transform="translate(-20.186 -0.164)" fill="#002b44"/>
        <path id="Caminho_14" data-name="Caminho 14" d="M85.428,14.074l-1.147,3.393H80.865L86.771.531h4.075l5.905,16.936H93.336l-1.148-3.393ZM88.8,4.118l-2.367,6.954h4.734Z" transform="translate(-25.079 -0.165)" fill="#002b44"/>
        <path id="Caminho_15" data-name="Caminho 15" d="M119.884,12.512a7.526,7.526,0,0,1-1.538,2.66,6.818,6.818,0,0,1-2.416,1.7,8.007,8.007,0,0,1-3.147.6h-6.272V.53h6.272a8.227,8.227,0,0,1,3.172.586,6.565,6.565,0,0,1,2.4,1.683,7.613,7.613,0,0,1,1.525,2.673A10.892,10.892,0,0,1,120.421,9a10.783,10.783,0,0,1-.537,3.514m-2.868-5.43a5.163,5.163,0,0,0-.671-1.756A3.8,3.8,0,0,0,115,4.032a4.36,4.36,0,0,0-2.22-.5h-3.051V14.464h3.051a3.883,3.883,0,0,0,3.647-1.976,5.106,5.106,0,0,0,.622-1.782,11.421,11.421,0,0,0,.146-1.732,10.124,10.124,0,0,0-.183-1.892" transform="translate(-33.033 -0.164)" fill="#002b44"/>
        <path id="Caminho_16" data-name="Caminho 16" d="M140.595.682a7.914,7.914,0,0,1,2.619,1.874,8.752,8.752,0,0,1,1.718,2.8,9.432,9.432,0,0,1,.621,3.431,9.5,9.5,0,0,1-.621,3.456,8.747,8.747,0,0,1-1.718,2.8,7.882,7.882,0,0,1-2.619,1.874,8.4,8.4,0,0,1-6.628,0,7.873,7.873,0,0,1-2.619-1.874,8.724,8.724,0,0,1-1.718-2.8,9.5,9.5,0,0,1-.622-3.456,9.433,9.433,0,0,1,.622-3.431,8.728,8.728,0,0,1,1.718-2.8A7.9,7.9,0,0,1,133.967.682a8.4,8.4,0,0,1,6.628,0M139.262,14.14a5.029,5.029,0,0,0,1.6-1.25,6.021,6.021,0,0,0,1.078-1.85,6.634,6.634,0,0,0,0-4.485,6.046,6.046,0,0,0-1.078-1.85,5.049,5.049,0,0,0-1.6-1.25A4.393,4.393,0,0,0,137.293,3a4.474,4.474,0,0,0-1.982.453A5.035,5.035,0,0,0,133.7,4.7a6.07,6.07,0,0,0-1.076,1.85,6.623,6.623,0,0,0,0,4.485,6.046,6.046,0,0,0,1.076,1.85,5.016,5.016,0,0,0,1.614,1.25,4.465,4.465,0,0,0,1.982.453,4.384,4.384,0,0,0,1.969-.453" transform="translate(-40.01 0)" fill="#002b44"/>
        <path id="Caminho_17" data-name="Caminho 17" d="M212.362,8.169a4.944,4.944,0,0,1-1.11,1.721,5.029,5.029,0,0,1-1.745,1.122,6.158,6.158,0,0,1-2.27.4H203.26v6.052h-3.221V.53h7.126a6.756,6.756,0,0,1,2.367.391,4.836,4.836,0,0,1,1.757,1.1,4.753,4.753,0,0,1,1.086,1.721A6.416,6.416,0,0,1,212.752,6a5.915,5.915,0,0,1-.39,2.172m-9.1-4.637V8.413h3.88a2.507,2.507,0,0,0,1.757-.58,2.413,2.413,0,0,0,.634-1.861,2.416,2.416,0,0,0-.634-1.861,2.509,2.509,0,0,0-1.757-.579Z" transform="translate(-62.04 -0.164)" fill="#002b44"/>
        <path id="Caminho_18" data-name="Caminho 18" d="M234.159,17.466H221.616V.53h12.372v3h-9.151V7.143h7.81v3h-7.81v4.319h9.322Z" transform="translate(-68.732 -0.165)" fill="#002b44"/>
        <rect id="Retângulo_3" data-name="Retângulo 3" width="3.221" height="16.936" transform="translate(167.794 0.366)" fill="#002b44"/>
        <path id="Caminho_19" data-name="Caminho 19" d="M257.7,11.536l-3.562,5.93H250.3L255.769,8.8,250.548.53h3.807L257.7,6.07,261.041.53h3.832L259.65,8.8l5.442,8.663h-3.807Z" transform="translate(-77.629 -0.165)" fill="#002b44"/>
        <path id="Caminho_20" data-name="Caminho 20" d="M282.937.682a7.914,7.914,0,0,1,2.619,1.874,8.752,8.752,0,0,1,1.718,2.8,9.433,9.433,0,0,1,.621,3.431,9.5,9.5,0,0,1-.621,3.456,8.748,8.748,0,0,1-1.718,2.8,7.883,7.883,0,0,1-2.619,1.874,8.4,8.4,0,0,1-6.628,0,7.873,7.873,0,0,1-2.619-1.874,8.723,8.723,0,0,1-1.718-2.8,9.5,9.5,0,0,1-.622-3.456,9.432,9.432,0,0,1,.622-3.431,8.728,8.728,0,0,1,1.718-2.8A7.9,7.9,0,0,1,276.309.682a8.4,8.4,0,0,1,6.628,0M281.6,14.14a5.029,5.029,0,0,0,1.6-1.25,6.022,6.022,0,0,0,1.078-1.85,6.623,6.623,0,0,0,0-4.485,6.046,6.046,0,0,0-1.078-1.85,5.048,5.048,0,0,0-1.6-1.25A4.392,4.392,0,0,0,279.635,3a4.474,4.474,0,0,0-1.982.453,5.035,5.035,0,0,0-1.614,1.25,6.069,6.069,0,0,0-1.076,1.85,6.622,6.622,0,0,0,0,4.485,6.045,6.045,0,0,0,1.076,1.85,5.016,5.016,0,0,0,1.614,1.25,4.465,4.465,0,0,0,1.982.453,4.384,4.384,0,0,0,1.969-.453" transform="translate(-84.156 0)" fill="#002b44"/>
        <path id="Caminho_21" data-name="Caminho 21" d="M303.8,3.532V17.466h-3.222V3.532h-4.539v-3h12.3v3Z" transform="translate(-91.814 -0.164)" fill="#002b44"/>
        <path id="Caminho_22" data-name="Caminho 22" d="M326.128.682a7.914,7.914,0,0,1,2.619,1.874,8.753,8.753,0,0,1,1.718,2.8,9.433,9.433,0,0,1,.621,3.431,9.5,9.5,0,0,1-.621,3.456,8.749,8.749,0,0,1-1.718,2.8,7.883,7.883,0,0,1-2.619,1.874,8.4,8.4,0,0,1-6.628,0,7.873,7.873,0,0,1-2.619-1.874,8.724,8.724,0,0,1-1.718-2.8,9.5,9.5,0,0,1-.622-3.456,9.433,9.433,0,0,1,.622-3.431,8.728,8.728,0,0,1,1.718-2.8A7.9,7.9,0,0,1,319.5.682a8.4,8.4,0,0,1,6.628,0M324.8,14.14a5.029,5.029,0,0,0,1.6-1.25,6.021,6.021,0,0,0,1.078-1.85,6.634,6.634,0,0,0,0-4.485A6.046,6.046,0,0,0,326.4,4.7a5.048,5.048,0,0,0-1.6-1.25A4.392,4.392,0,0,0,322.826,3a4.474,4.474,0,0,0-1.982.453A5.035,5.035,0,0,0,319.23,4.7a6.07,6.07,0,0,0-1.076,1.85,6.623,6.623,0,0,0,0,4.485,6.045,6.045,0,0,0,1.076,1.85,5.016,5.016,0,0,0,1.614,1.25,4.465,4.465,0,0,0,1.982.453,4.384,4.384,0,0,0,1.969-.453" transform="translate(-97.551 0)" fill="#002b44"/>
        <path id="Caminho_23" data-name="Caminho 23" d="M178.774,11.8a5.506,5.506,0,0,1-1.787,4.359,5.866,5.866,0,0,1-3.978,1.381,6.552,6.552,0,0,1-4.216-1.405,4.717,4.717,0,0,1-1.905-3.883,5.407,5.407,0,0,1,.571-2.4,3.124,3.124,0,0,1,1.477-1.574,3.67,3.67,0,0,1-2-3.573,3.943,3.943,0,0,1,2.1-3.6A8.239,8.239,0,0,1,173.391.035V2.728a4.42,4.42,0,0,0-2.239.428,2.038,2.038,0,0,0-.9,1.93,2.213,2.213,0,0,0,.023.31q.1,1.809,3.12,1.81V9.612a3.908,3.908,0,0,0-2.5.691,1.9,1.9,0,0,0-.738,1.548A2.908,2.908,0,0,0,171,13.863a2.622,2.622,0,0,0,1.989.918q2.572,0,2.572-2.978v-4.6h3.216Z" transform="translate(-51.758 -0.011)" fill="#002b44"/>
      </g>
    </g>
  </g>
</svg>
